<?xml version="1.0" encoding="utf-8"?>
<!-- Generator: Adobe Illustrator 27.5.0, SVG Export Plug-In . SVG Version: 6.00 Build 0)  -->
<svg version="1.1" id="Capa_1" xmlns="http://www.w3.org/2000/svg" xmlns:xlink="http://www.w3.org/1999/xlink" x="0px" y="0px"
	 viewBox="0 0 2312 1947" style="enable-background:new 0 0 2312 1947;" xml:space="preserve">
<rect style="fill:#FFFFFF;" width="2311.656" height="1946.656"/>
<g>
	<path style="fill:#E7CFC7;" d="M1966.652,1612.004c0,44.156-392.41,79.957-876.473,79.957s-876.469-35.801-876.469-79.957
		c0-44.16,392.406-79.953,876.469-79.953S1966.652,1567.844,1966.652,1612.004z"/>
	<path style="fill:#E7CFC7;" d="M1563.98,1735.449c0,40.195-212.125,72.785-473.801,72.785c-261.668,0-473.801-32.59-473.801-72.785
		c0-40.191,212.133-72.77,473.801-72.77C1351.855,1662.68,1563.98,1695.258,1563.98,1735.449z"/>
	<g>
		<g>
			<path style="fill:#0056A7;" d="M1772.398,273.086c4.922,12.219-0.938,28.301,4.25,39.176
				c5.266,11.016,19.301,11.578,24.504,21.766c17.68,34.605-2.344,41.82-0.125,68.102c2.5,29.363,32.953,44.438,7.094,75.145
				c-21.293,25.285-64.398,21.25-74.082-12.207c0.703-0.961,0.723-0.949,0.051,0.047c-50.113,32.992-89.145-55.297-29.023-72.902
				c-22.02-15.59-31.719-48.914-6.715-68.199c-23.789-16.426-22.297-48.953,1.277-64.031c3.797-2.434-11.906-33.805,19.547-36.52
				C1741.844,221.508,1765.5,255.98,1772.398,273.086z"/>
			<g>
				<g>
					<path style="fill:#E59375;" d="M1769.355,434.004c24.406-0.68,44.75,18.543,45.43,42.961
						c0.68,24.402-12.617,87.375-31.211,71.543c-36.543-31.121-54.773-49.84-55.461-74.25
						C1727.426,449.848,1744.945,434.68,1769.355,434.004z"/>
					<path style="fill:#E59375;" d="M1801.004,459.469l-42.32,14.066l-7.645,45.168c0,0,93.102,113.195,123.434,128.965
						c32.316,16.801,23.648-12.617,21.535-24.762C1896.008,622.906,1824.93,474.895,1801.004,459.469z"/>
					<path style="fill:#E59375;" d="M1893.227,651.434c0,0,78.949-39.324,129.844-83.379c0,0,4.813-15.383-8.637-11.953
						c-12.875,3.285-140.348,36.391-148.527,46.902C1857.723,613.516,1893.227,651.434,1893.227,651.434z"/>
					<path style="fill:#E59375;" d="M2078.691,557.578l-12.246,5.641c0,0,24.836-5.238,28.406-15.902c0,0,1.258-2.031-2.832-3.203
						c0,0-19.824,8.977-29.617,10.754c0,0,21.594-4.887,34.648-13.051c0,0,3.637-6.195-3.75-6.531
						c3.539-3.856-1.625-4.895-1.625-4.895s-5.02-0.254-15.633,1.426c0,0-16.355,2.473-35.898,3.141c0,0,8.609-14.609,0.531-18.969
						l-14.512,20.043l-12.113,20.203l3.578,13.18l24.82,3.703c0,0,21.52-1.648,31.859-6.336
						C2074.309,566.781,2102.961,551.332,2078.691,557.578z"/>
				</g>
				<path style="fill:#4B9EBF;" d="M1779.383,433.984c0,0,34.07,6.078,38.527,39.344c0,0,98.988,139.367,80.746,178.867
					c-7.754,3.035-46.238,25.363-165.621-145.223C1733.035,506.973,1701.051,421.848,1779.383,433.984z"/>
				<path style="fill:#4B9EBF;" d="M1864.262,592.879c0,0,51.465-22.09,145.168-41.852c0,0,16.078,16.09,14.477,26.777
					c0,0-112.59,76.301-129.113,74.922C1894.793,652.727,1857.313,626.191,1864.262,592.879z"/>
			</g>
			<g>
				<g>
					<g>
						<path style="fill:#E59375;" d="M1689.074,1568.801c20.98,9.746,44.02,8.402,44.02,8.402l-19.172-19.656
							c0,0-16.574-36.895-18.301-48.801c-1.109-7.633,4.09-30.008,4.09-30.008l-28.68-6.012l-4.367,15.793l-16.824,21.219
							c0,0-4.039,11.066,15.859,18.938C1665.699,1528.676,1675.734,1548.762,1689.074,1568.801z"/>
					</g>
					<path d="M1713.922,1557.547c-8.57,1.484-22.207-1.223-27.238-10.109c-20.285-35.77-20.02-58.918-20.02-58.918
						c-18.398,11.695-18.199,25.703-18.199,25.703l-0.41,5.648l-3.203,43.559l2.953,0.621l17.344-31.984l10.98,37.031
						c45.234,18.941,59.891,9.273,59.891,9.273L1713.922,1557.547z"/>
				</g>
				<path style="fill:#010814;" d="M1819.949,1163.234c0,0-115.82,320.777-122.727,333.945c0,0-34.18-5.414-31.723-13.344
					c5.902-19.164,17.027-161.617,23.445-192.434c10.328-49.484,19.508-80.125,62.656-138.66
					C1751.602,1152.742,1817.176,1123.477,1819.949,1163.234z"/>
			</g>
			<path style="fill:#F7A483;" d="M1770.004,778.769c0,0,17.789,62.633,25.734,102.274c14.066,70.125,19.727,250.769,19.727,250.769
				s-58.852,31.867-67.039,16.961c-39.543-71.961-44.18-52.227-99.082-295.93L1770.004,778.769z"/>
			<path style="fill:#010814;" d="M1652.648,860.598c0,0,22.289,184.637,93.57,289.266c0,0,21.527,56.93,73.73,13.371
				c0,0,6.496-300.668-44.211-393.66C1775.738,769.574,1630.859,762.414,1652.648,860.598z"/>
			<path style="fill:#E79675;" d="M1720.586,656.832c5.598-1.016,28.695,10.906,28.695,10.906s28.852,92.715,30.086,106.816
				c1.25,14.082-95.711,87.066-204.012,45.512c0,0,50.141-130.559,53.207-162.715
				C1631.633,625.195,1720.586,656.832,1720.586,656.832z"/>
			<path style="fill:#09111C;" d="M1749.281,667.738c0,0,27.652,83.613,30.086,106.816c8.633,82.137-102.508,116.582-210.816,75.027
				c0,0-7.027-112.926,60.012-192.23C1628.563,657.352,1646.379,673.598,1749.281,667.738z"/>
			<path style="fill:#09111C;" d="M1646.883,910.519l-78.332-42.996c0,0,12.707,247.816,22.633,317.422
				c0,0,43.82,12.199,57.391,3.188c40.633-95.301,64.164-302.219,64.164-302.219L1646.883,910.519z"/>
			<path style="fill:#09111C;" d="M1599.426,795c0,0-37.59,10.848-29.813,80.496c7.598,68.02,132.695,74.481,144.375,4.734
				C1726.563,805.188,1665.676,765.418,1599.426,795z"/>
			<path style="fill:#F7A483;" d="M1652.246,429.125h75.387c-3.426-10.984-10.527-39.395,0.465-58.727l-76.172-50.012
				C1651.926,320.387,1665.473,404.309,1652.246,429.125z"/>
			<path style="fill:#E1876F;" d="M1722.227,396.16c-0.219-8.398,1.168-17.484,5.871-25.762l-76.172-50.012
				c0,0,5.527,34.203,6.086,65.395C1685.512,394.527,1696.828,397.914,1722.227,396.16z"/>
			<path style="fill:#F7A483;" d="M1600.457,435.629c-33.938,16.59-15.074,56.461-15.074,56.461l45.863,166.906
				c0,0,42.848,17.512,118.035,8.742c10.445-14.949,31.902-77.559,39.098-125.367c5.918-39.375,24.309-78.172,4.281-100.129
				c-7.684-8.418-66.191-16.816-66.492-18.191h-70.418L1600.457,435.629z"/>
			<g>
				<path style="fill:#F7A483;" d="M1739.816,377.242l4.566-11.117l11.445-32.82c1.617-5.223,2.621-12.418,1.063-17.68
					c-1.859-6.32-3.035-16.523-0.141-27.723c7.746-30.004-4.906-46.508-4.906-46.508c-16.277-28.777-58.043-30.766-58.043-30.766
					c-51.766,0.059-58.512,49.836-58.512,49.836c-9.996,32.844,15.129,61.801,15.172,61.852c3.184,3.66,3.254,9.344,4.652,13.75
					c1.5,4.707,3.891,9.148,6.934,13.016c6.84,8.691,15.902,17.145,25.383,22.598c8.988,5.168,26.625,10.898,39.324,11.406
					C1732.027,383.301,1737.199,383.621,1739.816,377.242z"/>
				<path style="fill:#0056A7;" d="M1655.266,341.883c0.93-23.59,1.449-22.117,1.449-22.117c0.906-6.859,13.656,8.676,13.84-0.309
					c0.805-41.141,16.723-59.941,22.727-62.801c16.281-7.769,33.129-9.387,46.258-6.359c20.598,4.746,18.391,32.359,18.391,32.359
					c22.844-100.348-91.711-73.73-91.711-73.73c-55.719,11.645-52.684,63.754-52.684,63.754
					c-9.566,55.293,43.59,90.125,43.59,90.125L1655.266,341.883z"/>
				<g>
					<g>
						<g>
							<g>
								<g>
									<g>
										<path style="fill:#F8A07D;" d="M1659.281,334.043c-1.922,1.328-4.328,2.02-7.277,1.816
											c-7.988-0.516-14.254-8.344-13.977-17.449c0.277-9.098,6.961-16.059,14.949-15.539c3.789,0.246,7.176,2.141,9.672,5.023
											c3.641,4.215,3.379,11.629,2.215,16.684C1663.934,328.625,1662.145,332.047,1659.281,334.043z"/>
									</g>
								</g>
							</g>
						</g>
					</g>
					<g>
						<g>
							<path style="fill:#E98B6F;" d="M1655.773,311.5c-0.223-4.801-10.125-0.73-8.801,2.039c0.773,1.59,2.406,2.816,3.68,3.965
								c1.746,1.578,2.574,2.984,2.699,5.371c0.027,0.273,0.043,1.109-0.25,1.289c-1.293,0.801-5.164-4.07-6.004-5.102
								c-1.668-2.023-1.742-5.34-0.77-7.691c1.023-2.504,2.758-3.617,5.473-3.309c2.172,0.234,4.379,0.496,4.109,3.188
								C1655.902,311.305,1655.785,311.742,1655.773,311.5L1655.773,311.5z"/>
						</g>
						<g>
							<path style="fill:#E98B6F;" d="M1652.422,316.305c1.066-0.957,1.988-0.066,2.969,0.719c0.922,0.754,1.398,1.766,1.594,2.902
								c0.426,2.516-0.078,5.816-1.613,7.914c-1.238,1.684-3.227,2.656-5.32,2.492c-2.91-0.23-3.648-2.84-3.633-5.309
								c0-0.656,0.035-2.219,0.688-2.594c0.73-0.41,1.168,0.699,1.602,1.184c0.621,0.645,1.57,0.941,2.426,1.059
								c1.648,0.227,3.316-0.539,4.418-1.711c0.199-0.211,0.383-0.461,0.484-0.727c-0.082,1.613-0.184,1.957-0.309,1.07
								c-0.102-0.418-0.277-0.805-0.496-1.172c-0.613-1.141-1.711-1.965-2.414-3.066
								C1652.48,318.559,1651.895,316.793,1652.422,316.305L1652.422,316.305z"/>
						</g>
					</g>
				</g>
				<path style="fill:#FFFFFF;" d="M1659.582,335.727c-0.145,2.699-2.449,4.789-5.148,4.645c-2.707-0.133-4.777-2.438-4.645-5.137
					c0.145-2.707,2.434-4.789,5.141-4.652C1657.637,330.723,1659.715,333.027,1659.582,335.727z"/>
			</g>
			<path style="fill:#4FA6C9;" d="M1746.848,428.145l32.535,5.84c0,0,23.707,5.195,24.496,25.484c0,0,1.324,38.449-19.602,107.973
				C1784.277,567.441,1749.664,460.762,1746.848,428.145z"/>
			<path style="fill:#4FA6C9;" d="M1738.551,426.867l14.66,2.258c0,0,28.445,54.992,35.168,113.246
				c-7.195,47.809-21.613,120.195-39.098,125.367c-59.27,17.527-121.145-10.027-121.145-10.027l-28.344-113.18
				c76.137-29.633,37.656-116.648,37.656-116.648l15.996-3.832l67.281,68.02L1738.551,426.867"/>
			<path style="fill:#4FA6C9;" d="M1768.621,464.406c0,0,29.75,41.203,34.93,62.43c3.414,13.949-20.906,45.367-40.547,50.91
				C1752.273,580.773,1752.02,467.188,1768.621,464.406z"/>
			<g>
				<polygon style="fill:#4592B1;" points="1710.602,442.996 1709.754,481.172 1695.695,467.426 				"/>
				<path style="fill:#7AD0E2;" d="M1710.602,442.141c0,0-42.637-17.461-53.215-34.844l-19.938,20.586l51.734,50.172l21.418-35.059"
					/>
			</g>
			<path style="fill:#7AD0E2;" d="M1748.559,444.078c0,0-4.133-15.984-24.395-29.492l2.648,55.109
				C1726.813,469.695,1738.055,441.504,1748.559,444.078z"/>
			<path style="fill:#4592B1;" d="M1750.402,469.695l-1.844-25.617c-6.188-1.516-11.719,7.148-16.23,14.246L1750.402,469.695z"/>
			<g>
				<g>
					<path style="fill:#F7A483;" d="M1632.73,1584.203c22.535,5.23,44.801-0.805,44.801-0.805l-22.797-15.297
						c0,0-23.797-32.711-27.93-44.012c-2.648-7.242-2.148-30.207-2.148-30.207h-29.297l-1.039,16.352l-12.105,24.215
						c0,0-1.688,11.668,19.398,15.285C1601.613,1549.734,1615.563,1567.328,1632.73,1584.203z"/>
				</g>
				<path d="M1654.734,1568.102c-8.078,3.203-21.98,3.352-28.734-4.309c-27.188-30.852-31.68-53.559-31.68-53.559
					c-15.609,15.223-12.535,28.895-12.535,28.895l0.758,5.617l5.809,43.281h3.008l10.414-34.867l18.348,33.996
					c48.152,9.254,60.52-3.215,60.52-3.215L1654.734,1568.102z"/>
			</g>
			<path style="fill:#09111C;" d="M1588.133,1159.086l64.012,18.945c0,0-22.012,307.051-24.855,321.648
				c0,0-34.285,4.625-34.211-3.68c0.152-20.047-23.387-145.34-25.645-176.734
				C1563.547,1265.305,1548.883,1229.109,1588.133,1159.086z"/>
			<g>
				<g>
					<path style="fill:#E59375;" d="M1616.801,434.004c-24.402-0.68-44.746,18.543-45.426,42.961
						c-0.68,24.402,12.617,87.375,31.211,71.543c36.539-31.121,54.773-49.84,55.461-74.25
						C1658.734,449.848,1641.215,434.68,1616.801,434.004z"/>
					<path style="fill:#E59375;" d="M1585.156,459.469l42.316,14.066l7.648,45.168c0,0-93.102,113.195-123.434,128.965
						c-32.316,16.801-23.648-12.617-21.535-24.762C1490.152,622.906,1561.23,474.895,1585.156,459.469z"/>
					<path style="fill:#E59375;" d="M1492.934,651.434c0,0-78.949-39.324-129.844-83.379c0,0-4.813-15.383,8.637-11.953
						c12.875,3.285,140.348,36.391,148.527,46.902C1528.438,613.516,1492.934,651.434,1492.934,651.434z"/>
					<path style="fill:#E59375;" d="M1307.469,557.578l12.246,5.641c0,0-24.836-5.238-28.41-15.902c0,0-1.258-2.031,2.836-3.203
						c0,0,19.824,8.977,29.617,10.754c0,0-21.594-4.887-34.648-13.051c0,0-3.637-6.195,3.746-6.531
						c-3.535-3.856,1.629-4.895,1.629-4.895s5.02-0.254,15.633,1.426c0,0,16.355,2.473,35.898,3.141c0,0-8.609-14.609-0.531-18.969
						l14.512,20.043l12.113,20.203l-3.578,13.18l-24.824,3.703c0,0-21.52-1.648-31.855-6.336
						C1311.852,566.781,1283.199,551.332,1307.469,557.578z"/>
				</g>
				<path style="fill:#4FA6C9;" d="M1653.125,506.973c-119.383,170.586-157.867,148.258-165.621,145.223
					c-18.242-39.5,77.273-182.5,77.273-182.5c15.383-33.188,42-35.711,42-35.711l30.672-6.102l19.684,25.082
					C1657.133,452.965,1669.574,479.43,1653.125,506.973z"/>
				<path style="fill:#4B9EBF;" d="M1521.898,592.879c0,0-51.465-22.09-145.168-41.852c0,0-16.078,16.09-14.48,26.777
					c0,0,112.594,76.301,129.117,74.922C1491.367,652.727,1528.848,626.191,1521.898,592.879z"/>
			</g>
			<path style="fill:#0056A7;" d="M1592.918,273.086c-4.918,12.219,0.941,28.301-4.25,39.176
				c-5.262,11.016-19.297,11.578-24.504,21.766c-17.68,34.605,2.348,41.82,0.129,68.102c-2.5,29.363-32.957,44.438-7.094,75.145
				c21.293,25.285,64.398,21.25,74.082-12.207c-0.707-0.961-0.723-0.949-0.051,0.047c50.113,32.992,89.145-55.297,29.02-72.902
				c22.023-15.59,31.723-48.914,6.715-68.199c23.793-16.426,22.301-48.953-1.273-64.031c-3.797-2.434,11.906-33.805-19.547-36.52
				C1623.477,221.508,1599.82,255.98,1592.918,273.086z"/>
			<path style="fill:#4FA6C9;" d="M1774.313,603.516c0,0-6.742,125.012,43.598,190.672c0,0-138.203,60.449-268.098,1.785
				c12.098-38.082,9.355-38.035,49.98-125.754c0,0,20.355-44.433,14.77-66.703H1774.313z"/>
		</g>
	</g>
	<g>
		<path style="fill:#963222;" d="M519.269,233.949c0,0-44.461,0.043-36.726-50.535c0,0,26.777,25.285,55.445,14.82
			C537.988,198.234,540.16,232.18,519.269,233.949z"/>
		<g>
			<g>
				<g>
					<path style="fill:#E59375;" d="M438.711,472.402l-14.137,3.078c0,0-38.652,166.32-24.109,205.805
						c14.547,39.488,37.918,0.394,45.219-3.176c7.293-3.574,71.918-186.602,71.918-186.602L438.711,472.402z"/>
					<path style="fill:#001940;" d="M390.004,660.469l25.41-193.164c15.129-50.824,70.98-32.055,70.98-32.055
						c41.887,15.535,35.223,48.496,35.223,48.496l-57.363,198.473c0,0-10.867,30.133-50.668,26.125
						C413.586,708.344,384.613,701.422,390.004,660.469z"/>
				</g>
				<path style="fill:#2C080D;" d="M458.445,1509.066c0,0-7.504,29.207-16.727,37.129c-9.219,7.922-44.402,19.574-44.402,19.574
					l-19.492,2.801c0,0-13.547,9.715,23.641,19.93c37.18,10.223,102.441-20.617,102.441-20.617l-14.715-59.703L458.445,1509.066z"/>
				<path style="fill:#2C080D;" d="M654.539,1572.645c6.563-10.227,20.32-65.957,20.32-65.957l30.379-0.922l19.016,61.363
					c0,0,3.051,10.27-3.16,14.117c0,0-37.883,13.152-70.242-0.629C650.852,1580.617,651.195,1577.875,654.539,1572.645z"/>
				<path style="fill:#F7A483;" d="M466.191,726.387l-38.797-237.094c0,0-13.363-35.641,13.371-53.453l101.887-47.895h71.859
					l122.492,72.395l-80.293,266.047H466.191z"/>
				<path style="fill:#00264E;" d="M656.711,726.387c0,0,22.004,50.238,27.313,165.73c0,0-165.598,51.941-217.539,0l-0.293-165.73
					H656.711z"/>
				<g>
					<path style="fill:#00264E;" d="M548.148,891.613c-0.281,38.758,29.902,70.402,67.418,70.676
						c37.523,0.273,68.172-30.918,68.457-69.676c0.277-38.754-29.902-70.391-67.418-70.668
						C579.082,821.668,548.434,852.867,548.148,891.613z"/>
					<path style="fill:#00264E;" d="M683.957,901.16l18.012,330.051c0,0-31.887,41.832-88.34-5.359l-61.297-303.598
						C552.332,922.254,582.086,820.223,683.957,901.16z"/>
				</g>
				<path style="fill:#00264E;" d="M687.922,1192.672c0,0,31.031,59.023,25.984,155.516l5.047,180.402l-51.203,1.527
					l-53.816-303.336C613.934,1226.781,642.441,1124.949,687.922,1192.672z"/>
				<g>
					<path style="fill:#00264E;" d="M466.793,892.301c-3.93,38.555,9.84,71.543,47.172,75.348
						c37.328,3.813,70.777-24.359,74.711-62.914c3.93-38.563-23.141-72.898-60.469-76.703
						C490.879,824.219,470.727,853.746,466.793,892.301z"/>
					<path style="fill:#00264E;" d="M572.746,943.063l-38.301,301.676c0,0-67.77,9.016-80.973-37.117
						c0,0-0.848-212.945,13.32-315.32C466.793,892.301,558.605,847.582,572.746,943.063z"/>
				</g>
				<path style="fill:#00264E;" d="M530.176,1218.004c0,0,12.25,45.188,0.981,118.004l-27.813,203.766l-54.809-3.871l4.938-328.281
					C453.473,1207.621,483.633,1162,530.176,1218.004z"/>
				<g>
					<path style="fill:#F7A483;" d="M726.297,489.488l13.961,3.73c0,0,21.793,167.184,5.438,205.953
						c-16.336,38.766-31.711,0.313-38.836-3.59c-7.129-3.91-60.258-190.637-60.258-190.637L726.297,489.488z"/>
					<path style="fill:#001940;" d="M688.785,694.082l-45.773-196.898c9.449-53.246,60.133-49.5,60.133-49.5
						c44.496,4.043,46.684,37.598,46.684,37.598l2.945,200.254c0,0,2.934,34.227-22.863,32.41
						C729.91,717.945,692.992,712.176,688.785,694.082z"/>
				</g>
				<path style="fill:#F7A483;" d="M614.871,335.578v76.805h-81.223c0,0,19.977-30.449,9.984-76.805H614.871z"/>
				<path style="fill:#E1876F;" d="M573.668,400.801c-7.328,4.707-22.875,14.734-31.762,8.871c-2.383-1.582-3.488-3.652-3.848-5.957
					c5.223-12.164,12.406-36.426,5.574-68.137h71.238v6.965C605.977,365.023,594.574,387.316,573.668,400.801z"/>
				<g>
					<path style="fill:#F8A07D;" d="M616.809,336.648c0,0,13.824-6,29.473-40.211c0,0,33.984-40.457,9.894-86.387
						c0,0-14.227-38.84-83.188-27.969C572.988,182.082,566.785,286.176,616.809,336.648z"/>
					<path style="fill:#F7A483;" d="M531.887,357.422l-4.602-12.035c0,0-12.691-44.809-12.691-44.816
						c-1.594-5.633-1.688-13.176-0.664-18.969c1.117-6.297,1.828-12.879,0.188-19.527c-8.008-32.223,8.508-50.516,8.508-50.516
						c18.199-30.395,62.988-31.402,62.988-31.402c55.465,1.441,61.375,54.941,61.375,54.941
						c9.816,35.445-17.859,65.797-17.918,65.863c-2.211,2.418-0.77,14.129-1.375,17.48c-2.598,14.293-16.012,23.359-27.93,29.668
						c-13.105,6.926-28.973,14.336-43.769,16.035C550.387,364.797,534.519,364.332,531.887,357.422z"/>
				</g>
				<path style="fill:#FFFFFF;" d="M669.898,719.949c-0.168,7.894,11.828,90.535,6.789,91.59c-0.035,0.008-137.098,31.598-210.203,0
					l-0.293-85.152l-38.797-237.094c0,0-13.363-35.641,13.371-53.453l101.887-47.895l-6.883,20.656l14.738,41.895l64.004-62.551
					l122.492,72.395c-6.848,22.688-13.648,45.379-20.496,68.062c-12.633,41.816-24.914,83.758-37.926,125.461
					C678.582,653.863,667.816,699.09,669.898,719.949z"/>
				<polygon style="fill:#A5C6C7;" points="559.34,402.855 560.195,441.027 574.254,427.277 				"/>
				<g>
					<path style="fill:#CFEAE6;" d="M541.445,464.406c0,3.012,2.438,5.449,5.449,5.449c3,0,5.438-2.438,5.438-5.449
						c0-3-2.438-5.441-5.438-5.441C543.883,458.965,541.445,461.406,541.445,464.406z"/>
				</g>
				<g>
					<path style="fill:#CFEAE6;" d="M541.445,563.32c0,3,2.438,5.438,5.449,5.438c3,0,5.438-2.438,5.438-5.438
						c0-3.02-2.438-5.449-5.438-5.449C543.883,557.871,541.445,560.301,541.445,563.32z"/>
				</g>
				<g>
					<path style="fill:#CFEAE6;" d="M541.445,662.215c0,3.016,2.438,5.457,5.449,5.457c3,0,5.438-2.441,5.438-5.457
						c0-3.004-2.438-5.441-5.438-5.441C543.883,656.773,541.445,659.211,541.445,662.215z"/>
				</g>
				<g>
					<path style="fill:#CFEAE6;" d="M541.445,761.125c0,3,2.438,5.445,5.449,5.445c3,0,5.438-2.445,5.438-5.445
						c0-3.012-2.438-5.449-5.438-5.449C543.883,755.676,541.445,758.113,541.445,761.125z"/>
				</g>
				
					<line style="fill:none;stroke:#CFEAE6;stroke-width:2.9481;stroke-miterlimit:10;" x1="559.34" y1="445.379" x2="559.34" y2="820.738"/>
				<g>
					<path style="fill:#471F08;" d="M467.32,819.363c0,0,70.016,32.801,213.297-0.723c2.359-0.563,1.367-6.672,1.367-6.672
						l-1.367-13.797c-0.617-4.422-3.09-4.211-3.09-4.211c-0.027,0.008-137.098,31.598-210.207,0c0,0-2.949-0.516-3.066,3.91v17.199
						C464.254,815.07,464.254,818.504,467.32,819.363z"/>
					<g>
						<path style="fill:none;stroke:#BCBEC0;stroke-width:4.8231;stroke-miterlimit:10;" d="M538.441,829.769
							c0,2.184,1.738,3.961,3.875,3.961h27.883c2.129,0,3.863-1.777,3.863-3.961v-20.082c0-2.184-1.734-3.957-3.863-3.957h-27.883
							c-2.137,0-3.875,1.773-3.875,3.957V829.769z"/>
						
							<line style="fill:none;stroke:#BCBEC0;stroke-width:4.8231;stroke-miterlimit:10;" x1="574.063" y1="818.465" x2="559.301" y2="818.465"/>
					</g>
				</g>
				<path style="fill:#BFE5E5;" d="M559.34,401.996c0,0,44.953-17.457,55.531-34.84l13.277,25.316l-47.379,45.438l-21.43-35.055"/>
				<path style="fill:#963222;" d="M520.855,213.867c2.02-14.637,49.711-6.82,62.195-4.535c7.508,1.379,16.32,3.668,20.41,11.055
					c1.508,2.727,7.535,21.793,0.117,31.344c6.555,20.523,8.098,36.398,8.098,36.398l3.789,0.211
					c7.461,19.234,8.922,42.352,8.922,42.352s27.82-11.996,47.137-62.785c19.559-64.672-28.512-93.168-28.512-93.168
					c-44.086-19.133-88.086-13.898-88.086-13.898s-44.348,4.055-54.367-22.414C500.559,138.426,472.469,199.176,520.855,213.867z"/>
				<g>
					<g>
						<g>
							<g>
								<g>
									<g>
										<path style="fill:#F7A483;" d="M620.766,306.176c1.961,1.66,4.543,2.691,7.805,2.793
											c8.844,0.277,16.555-7.645,17.234-17.695c0.68-10.031-5.926-18.402-14.762-18.684c-4.184-0.129-8.133,1.582-11.176,4.488
											c-4.441,4.242-4.961,12.418-4.227,18.109C616.238,299.734,617.82,303.688,620.766,306.176z"/>
									</g>
								</g>
							</g>
						</g>
					</g>
					<g>
						<g>
							<path style="fill:#E98B6F;" d="M627.043,281.781c0.762-5.254,11.199,0.285,9.449,3.18c-1.016,1.676-2.945,2.832-4.469,3.965
								c-2.09,1.563-3.144,3.008-3.547,5.617c-0.059,0.301-0.152,1.215,0.141,1.449c1.336,1.023,6.105-3.934,7.152-4.961
								c2.047-2.047,2.488-5.695,1.668-8.387c-0.871-2.855-2.648-4.273-5.676-4.223c-2.398,0.023-4.852,0.074-4.844,3.059
								C626.918,281.551,627,282.051,627.043,281.781L627.043,281.781z"/>
						</g>
						<g>
							<path style="fill:#E98B6F;" d="M630.195,287.418c-1.047-1.168-2.156-0.297-3.336,0.477c-1.082,0.715-1.727,1.785-2.055,3.027
								c-0.738,2.711-0.535,6.395,0.922,8.859c1.184,1.996,3.262,3.277,5.594,3.324c3.219,0.047,4.297-2.746,4.559-5.461
								c0.066-0.723,0.199-2.449-0.496-2.926c-0.734-0.512-1.348,0.645-1.887,1.137c-0.746,0.652-1.809,0.859-2.766,0.898
								c-1.844,0.078-3.586-0.938-4.684-2.355c-0.188-0.25-0.352-0.551-0.445-0.852c-0.074,1.781-0.008,2.191,0.227,1.215
								c0.168-0.453,0.387-0.855,0.672-1.227c0.793-1.203,2.094-1.988,2.973-3.117C629.902,289.891,630.723,288.02,630.195,287.418
								L630.195,287.418z"/>
						</g>
					</g>
				</g>
				<path style="fill:#001940;" d="M634.863,399.977l-54.488,191.391l8.09,347.746c0,0,93.496,6.969,130.488-26.508l-34.922-215.27
					l52.973-236.996L634.863,399.977z"/>
				<path style="fill:#001940;" d="M514.191,401.32l-62.043,29.16c0,0-35.316,9.324-28.102,45.91l20.414,202.68l-33.824,233.535
					c0,0,29.02,34.84,86.797,14.371l25.441-340.773L514.191,401.32z"/>
				<path style="fill:#BFE5E5;" d="M521.391,403.938c0,0,4.133-15.992,24.395-29.496l-2.648,55.109
					C543.137,429.551,531.887,401.359,521.391,403.938z"/>
				<path style="fill:#A5C6C7;" d="M519.547,429.551l1.844-25.613c6.188-1.52,11.719,7.145,16.223,14.246L519.547,429.551z"/>
				<g>
					<polygon style="fill:#D83633;" points="563.769,416.652 565.43,413.555 576.727,430.898 567.012,434.363 					"/>
					<path style="fill:#D83633;" d="M537.613,418.184l-3.168-4.855c0,0-12.074,10.145,0.602,21.035
						C535.047,434.363,535.047,425.387,537.613,418.184z"/>
					<path style="fill:#D83633;" d="M563.769,416.652c0,0-9.582,8.516-26.156,1.531c-3.621,4.609-3.613,10.477-2.566,16.18
						l8.586,17.703h11.996l11.383-17.703C567.012,434.363,568.188,430.457,563.769,416.652z"/>
					<polygon style="fill:#A62724;" points="555.629,452.066 565.309,705.402 545.09,744.758 528.586,705.606 543.633,452.066 					
						"/>
				</g>
				<path style="fill:#F7A483;" d="M622.617,612.621l24.906-19.676c0,0,37.504-5.5,56.234-3.137c0,0,6.184,8.609-41.113,9.93
					c0,0,33.172,10.594,43.828,18.48c0,0,1.703,9.817-28.629-4.441l-13.805-1.016l32.09,16.019c0,0-1.25,6.109-30.473-1.828
					l-29.309,3.211L622.617,612.621z"/>
				<path style="fill:#00153B;" d="M463.105,616.273l160.516-19.195c8.031,9.797,15.762,27.598,12.324,46.227l-205.039,65.031
					c0,0-54.172,9.609-39.887-55.629C391.02,652.707,413.906,619.441,463.105,616.273z"/>
				<path style="fill:#F7A483;" d="M463.105,616.273c0,0,28.844,15.551,39.66,16.781l16.781-28.961l-22.926-14.871l-15.719-3.621
					c0,0-25.863-6.672-32.676,28.813L463.105,616.273z"/>
				<g>
					<path style="fill:#002952;" d="M750.09,672.441c9.692,58.652-32.961,43.836-32.961,43.836L499.629,638
						c6.129-33.703,19.918-38.977,19.918-38.977l186.027,35.492C705.574,634.516,740.574,645.516,750.09,672.441z"/>
				</g>
			</g>
		</g>
	</g>
	<g>
		<g>
			<path style="fill:#370900;" d="M862.992,324.391c0,0,25.922,23.898,23.144,101.543V660.84c0,0,1.535,24.059,21.469,39.981
				c0,0-170.316,50.039-184.852-26.328v-243.66c0,0-7.906-102.52,31.57-120.938C754.324,309.895,824.188,281.102,862.992,324.391z"
				/>
			<path style="fill:#F7A483;" d="M881.973,525.801c35.273,16.875,16.414,56.746,16.414,56.746l-45.863,166.898
				c0,0-42.848,17.519-118.035,8.75c-10.445-14.949-31.906-77.559-39.098-125.367c-5.918-39.375-24.313-78.172-4.277-100.129
				c7.68-8.418,66.195-16.816,66.488-18.195l69.074-0.281L881.973,525.801z"/>
			<path style="fill:#E59375;" d="M831.129,951.055c0,0-22.301,184.633-93.574,289.266c0,0-33.238,55.859-73.734,13.367
				c0,0-6.488-300.664,44.211-393.66C708.031,860.027,852.906,852.871,831.129,951.055z"/>
			<path style="fill:#E59375;" d="M726.5,519.582c-24.41-0.68-56.836,23.422-57.516,47.836
				c-0.68,24.406,12.625,87.379,31.211,71.547c36.547-31.121,54.781-49.844,55.461-74.25
				C756.344,540.301,750.91,520.258,726.5,519.582z"/>
			<path style="fill:#E59375;" d="M681.777,557.019l44.555-1.961l23.254,39.465c0,0-46.586,138.965-69.293,164.52
				c-24.195,27.226-26.594-3.348-28.957-15.453C651.336,743.59,664.926,579.965,681.777,557.019z"/>
			<g>
				<g>
					<g>
						<path style="fill:#E59375;" d="M683.613,1669.008c-22.813,3.887-44.684-3.461-44.684-3.461l23.664-13.926
							c0,0,25.695-31.238,30.492-42.281c3.074-7.066,3.938-30.023,3.938-30.023l29.25,1.734l0.066,16.387l10.648,24.895
							c0,0,0.988,11.738-20.281,14.102C716.707,1636.434,701.746,1653.176,683.613,1669.008z"/>
					</g>
					<path style="fill:#09111C;" d="M662.594,1651.621c7.875,3.68,21.746,4.648,28.941-2.598
						c28.98-29.18,34.805-51.586,34.805-51.586c14.68,16.125,10.797,29.586,10.797,29.586l-1.09,5.563l-8.355,42.863l-3.012-0.176
						l-8.324-35.418l-20.336,32.844c-48.621,6.379-60.215-6.801-60.215-6.801L662.594,1651.621z"/>
				</g>
				<path style="fill:#E59375;" d="M663.82,1253.688c0,0,30.004,311.105,33.203,325.629c0,0,29.535,10.031,29.25,1.734
					c-0.652-20.039,28.469-148.234,30.379-179.656c3.043-50.453-5.164-84.035-31.41-151.859
					C725.242,1249.535,676.957,1216.059,663.82,1253.688z"/>
			</g>
			<path style="fill:#E79675;" d="M763.184,747.285c-5.602-1.016-28.695,10.91-28.695,10.91s-28.855,92.711-30.086,106.813
				c-1.25,14.086,95.707,87.07,204.016,45.516c0,0-50.145-130.563-53.215-162.715C852.137,715.652,763.184,747.285,763.184,747.285z
				"/>
			<path style="fill:#101B26;" d="M734.488,758.195c0,0-27.656,83.613-30.086,106.813c-8.637,82.141,102.508,116.586,210.816,75.031
				c0,0,7.023-112.926-60.016-192.231C855.203,747.809,837.398,764.051,734.488,758.195z"/>
			<path style="fill:#F7A483;" d="M836.894,1000.977l78.324-43c0,0-12.711,247.816-22.633,317.426c0,0-43.82,12.199-57.391,3.184
				c-40.625-95.297-64.156-302.215-64.156-302.215L836.894,1000.977z"/>
			<path style="fill:#F7A483;" d="M884.344,885.457c0,0,37.59,10.848,29.809,80.492c-7.594,68.024-132.695,74.48-144.371,4.738
				C757.207,895.644,818.094,855.875,884.344,885.457z"/>
			<path style="fill:#F7A483;" d="M831.523,519.582h-75.391c3.43-10.984,10.531-39.394-0.453-58.73l76.16-50.008
				C831.84,410.844,818.301,494.766,831.523,519.582z"/>
			<path style="fill:#E1876F;" d="M761.551,486.617c0.207-8.402-1.176-17.492-5.871-25.766l76.16-50.008
				c0,0-5.516,34.199-6.078,65.395C798.258,484.984,786.941,488.371,761.551,486.617z"/>
			<g>
				<path style="fill:#F7A483;" d="M743.961,467.699l-4.57-11.121l-11.449-32.816c-1.617-5.223-2.617-12.422-1.066-17.68
					c1.863-6.32,3.035-16.527,0.144-27.727c-7.746-30,4.902-46.508,4.902-46.508c16.289-28.777,58.047-30.762,58.047-30.762
					c51.766,0.059,58.52,49.836,58.52,49.836c9.984,32.84-15.129,61.797-15.18,61.848c-3.188,3.66-3.254,9.348-4.652,13.75
					c-1.492,4.707-3.891,9.148-6.934,13.02c-6.832,8.691-15.902,17.145-25.383,22.594c-8.988,5.172-26.625,10.895-39.328,11.406
					C751.75,473.754,746.578,474.078,743.961,467.699z"/>
				<path style="fill:#370900;" d="M828.512,432.34c-0.93-23.59-1.457-22.117-1.457-22.117c-0.898-6.863-13.656,8.676-13.84-0.309
					c-0.805-41.145-16.727-59.938-22.719-62.805c-16.289-7.766-33.129-9.387-46.266-6.359c-20.59,4.742-18.395,32.359-18.395,32.359
					c-22.844-100.344,91.711-73.727,91.711-73.727c55.723,11.645,52.688,63.754,52.688,63.754
					c9.566,55.293-43.59,90.121-43.59,90.121L828.512,432.34z"/>
				<g>
					<g>
						<g>
							<g>
								<g>
									<g>
										<path style="fill:#F8A07D;" d="M824.488,424.5c1.922,1.324,4.324,2.02,7.285,1.813
											c7.988-0.516,14.242-8.344,13.965-17.453c-0.273-9.09-6.957-16.055-14.938-15.535c-3.789,0.25-7.176,2.141-9.672,5.023
											c-3.641,4.215-3.379,11.633-2.223,16.688C819.836,419.074,821.621,422.504,824.488,424.5z"/>
									</g>
								</g>
							</g>
						</g>
					</g>
					<g>
						<g>
							<path style="fill:#E98B6F;" d="M828,401.957c0.219-4.801,10.129-0.727,8.797,2.039c-0.766,1.59-2.406,2.816-3.672,3.965
								c-1.754,1.574-2.582,2.984-2.711,5.371c-0.023,0.27-0.039,1.109,0.262,1.285c1.289,0.805,5.156-4.066,6-5.098
								c1.672-2.027,1.746-5.34,0.766-7.695c-1.023-2.5-2.758-3.613-5.477-3.309c-2.168,0.234-4.367,0.5-4.105,3.191
								C827.867,401.758,827.984,402.199,828,401.957L828,401.957z"/>
						</g>
						<g>
							<path style="fill:#E98B6F;" d="M831.348,406.758c-1.066-0.953-1.988-0.066-2.969,0.719c-0.922,0.75-1.402,1.766-1.594,2.902
								c-0.418,2.516,0.086,5.82,1.617,7.918c1.234,1.684,3.219,2.656,5.316,2.488c2.918-0.227,3.645-2.84,3.629-5.309
								c0-0.652-0.031-2.219-0.688-2.594c-0.73-0.41-1.164,0.703-1.602,1.188c-0.621,0.648-1.566,0.941-2.422,1.059
								c-1.652,0.223-3.32-0.539-4.418-1.711c-0.191-0.211-0.387-0.461-0.484-0.73c0.082,1.613,0.184,1.961,0.309,1.07
								c0.101-0.414,0.277-0.801,0.496-1.172c0.609-1.145,1.707-1.961,2.414-3.066C831.289,409.016,831.875,407.246,831.348,406.758
								L831.348,406.758z"/>
						</g>
					</g>
				</g>
				<path style="fill:#FFFFFF;" d="M824.195,426.184c0.133,2.699,2.438,4.785,5.148,4.645c2.699-0.133,4.777-2.438,4.633-5.141
					c-0.133-2.703-2.43-4.785-5.137-4.648C826.141,421.176,824.055,423.48,824.195,426.184z"/>
			</g>
			<path style="fill:#9698BC;" d="M745.219,517.324"/>
			<path style="fill:#00B9C5;" d="M745.219,517.324l-14.66,2.258c0,0-28.445,54.992-35.168,113.246
				c7.191,47.809,21.609,120.195,39.098,125.367c59.269,17.527,121.144-10.027,121.144-10.027l28.344-113.18
				c-76.137-29.633-37.66-116.652-37.66-116.652l-15.984-3.832C830.332,514.504,773.769,555.973,745.219,517.324z"/>
			<path style="fill:#00B9C5;" d="M715.148,554.863c0,0-29.742,41.203-34.934,62.43c-3.41,13.949,20.918,45.367,40.551,50.91
				C731.496,671.231,731.746,557.641,715.148,554.863z"/>
			<g>
				<g>
					<path style="fill:#F7A483;" d="M851.039,1674.66c-22.535,5.23-44.801-0.805-44.801-0.805l22.801-15.301
						c0,0,23.793-32.711,27.926-44.008c2.648-7.242,2.145-30.211,2.145-30.211h29.309l1.039,16.355l12.106,24.211
						c0,0,1.684,11.668-19.406,15.289C882.156,1640.191,868.207,1657.785,851.039,1674.66z"/>
				</g>
				<path style="fill:#09111C;" d="M829.039,1658.555c8.074,3.207,21.973,3.352,28.73-4.305
					c27.188-30.852,31.688-53.559,31.688-53.559c15.602,15.223,12.523,28.891,12.523,28.891l-0.754,5.617l-5.801,43.285h-3.02
					l-10.402-34.863l-18.359,33.992c-48.152,9.254-60.508-3.219-60.508-3.219L829.039,1658.555z"/>
			</g>
			<path style="fill:#F7A483;" d="M895.637,1249.535l-64.004,18.953c0,0,24.637,301.25,27.477,315.848c0,0,29.383,8.305,29.309,0
				c-0.16-20.047,25.66-143.219,27.914-174.617C920.223,1355.758,934.887,1319.566,895.637,1249.535z"/>
			<path style="fill:#101B26;" d="M914.055,908.16l12.641,297.887c0,0-162.262,37.555-274.93-13.949
				c0,0,10.301-254.832,56.113-339.344C707.879,852.754,904.863,834.531,914.055,908.16z"/>
			<path style="fill:#F7A483;" d="M839.996,543.246c-13.766,20.16-6.02,39.719,5.125,61.004
				c11.324,21.637,80.332,36.602,77.055,12.406c-6.438-47.57-11.301-74.656-32.492-86.789
				C871.711,519.582,853.754,523.066,839.996,543.246z"/>
			<path style="fill:#F7A483;" d="M837.844,583.207l34.715-28.004l42.133,17.969c0,0,44.922,139.508,41.805,173.555
				c-3.328,36.273-23.398,13.078-32.477,4.738C924.019,751.465,837.894,611.676,837.844,583.207z"/>
			<path style="fill:#F7A483;" d="M955.676,743.961c0,0,5.48,98.191-9.523,163.813c0,0-18.996,11.285-20.516-2.508
				c-2.547-23.422-22.223-138.789-17.219-179.703C910.027,712.348,955.676,743.961,955.676,743.961z"/>
			<path style="fill:#F7A483;" d="M937.301,988.121c0,0-5.117,2.5-1.66-9.488l4.047-18.711c0,0-4.066,31.172-14.719,37.098
				c0,0-1.914,1.742-3.973-2.391c0,0,9.035-26.563,8.984-37.363c0,0-2.348,32.484-14.359,41.82c0,0-6.086,2.586-6.004-3.82
				c0,0,9.223-22.984,10.07-41.269c0,0-7.176,31.742-13.816,40.543c0,0-6.766,1.406-5.316-6.129c0,0,5.164-19.023,9.09-40.926
				c0,0-12.398,10.492-21.84,5.59l28.027-40.891l9.805-6.918l20.516,2.508l2.379,24.27c0,0,1.461,25.414-6.086,49.266
				C942.445,981.309,940.469,987.363,937.301,988.121z"/>
			<path style="fill:#9698BC;" d="M939.269,717.578"/>
			<polygon style="fill:#D2E7F2;" points="708.902,659.844 769.754,793.766 645.879,782.332 590.031,650.902 			"/>
			<path style="fill:#E59375;" d="M609.656,692.371c2.355,4.336,4.879,8.266,8.676,11.273c4.32,3.422,11.543,2.387,14.328,4.883
				c4.844,4.348,1.406,16.102-8.82,27.887c-8.867,10.23-15.406-3.156-18.398-11.391c-4.41-12.164-4.117-17.598,0.914-27.414
				L609.656,692.371z"/>
		</g>
	</g>
	<g>
		<g>
			<path style="fill:#C4A17E;" d="M1514.957,543.945l4.41-165.512c3.145-38.695-12.047-52.73-12.047-52.73
				c-64.551-24.215-97.125,8.473-97.125,8.473v169.098C1438.254,529.465,1478.055,546.813,1514.957,543.945z"/>
			<path style="fill:#F7A483;" d="M1340.438,526.086c-33.934,16.59-15.07,56.461-15.07,56.461l45.863,166.898
				c0,0,42.844,17.519,118.031,8.75c10.445-14.949,31.906-77.559,39.102-125.367c5.918-39.375,24.309-78.172,4.273-100.129
				c-7.68-8.418-66.191-16.816-66.484-18.195h-70.418L1340.438,526.086z"/>
			<g>
				<path style="fill:#D7B089;" d="M1495.938,378.434l-4.395,164.789c7.848,1.07,15.695,1.32,23.414,0.723l4.41-165.512
					c3.145-38.695-12.047-52.73-12.047-52.73c-22.996-8.629-41.906-10.016-56.762-8.246c9.949,1.105,21.059,3.641,33.332,8.246
					C1483.891,325.703,1499.07,339.738,1495.938,378.434z"/>
				<path style="fill:#6B3F2C;" d="M1446.852,751.211h-0.352C1446.719,751.211,1446.852,751.211,1446.852,751.211z"/>
			</g>
			<g>
				<path style="fill:#E59375;" d="M1527.32,529.445c21.805,10.992,25.27,36.367,21.672,59.422
					c-3.766,24.125-46.918,74.785-57.508,52.777c-20.816-43.25-30.547-76.051-21.285-98.641
					C1479.465,520.402,1492.383,511.832,1527.32,529.445z"/>
				<path style="fill:#E59375;" d="M1549.773,565.316l-50.684-2.297l-25.285,38.203c0,0,39.281,141.199,60.645,167.894
					c22.742,28.453,26.723-1.953,29.707-13.918C1564.156,755.199,1557.684,597.305,1549.773,565.316z"/>
				<g>
					<g>
						<path style="fill:#CA8268;" d="M1561.777,979.91l3.109,20.969l-12.207,27.813c0,0,5.164,4.617,10.875-4.504l10.871-22.93
							l-1.523-23.625L1561.777,979.91z"/>
						<path style="fill:#CA8268;" d="M1567.367,986.996l4.27,20.766l-10.613,28.457c0,0,5.398,4.317,10.586-5.109l9.582-23.508
							l-2.852-23.492L1567.367,986.996z"/>
						<path style="fill:#E59375;" d="M1590.809,991.648l-3.801-24.379l-4.18-30.258l-18.93-2.617l-6.508,31.902l-1.574,16.746
							l-1.902,22.879l-1.016,7.391c0,0,5.926,1.906,10.539-9.848l4.828-21.578l8.207,16.961l-6.949,29.777
							c0,0,1.777,15.539,6.438,9.676l15.66-41.789L1590.809,991.648z"/>
					</g>
					<path style="fill:#E59375;" d="M1517.219,734.781c0,0,24.531,115.981,46.68,199.613c0,0,16.27,19.316,18.93,2.617
						c5.32-33.328-12.316-213.984-20.844-227.805C1553.469,695.398,1517.219,734.781,1517.219,734.781z"/>
				</g>
			</g>
			<g>
				<g>
					<g>
						<path style="fill:#E59375;" d="M1474.098,1673.344c22.813,3.887,44.684-3.461,44.684-3.461l-23.668-13.922
							c0,0-25.691-31.238-30.488-42.277c-3.074-7.07-3.941-30.027-3.941-30.027l-29.246,1.734l-0.066,16.391l-10.648,24.887
							c0,0-0.988,11.746,20.281,14.109C1441.004,1640.777,1455.965,1657.52,1474.098,1673.344z"/>
					</g>
					<path style="fill:#C93232;" d="M1495.113,1655.961c-7.871,3.68-21.746,4.652-28.938-2.602
						c-28.98-29.172-34.805-51.578-34.805-51.578c-14.68,16.117-10.797,29.582-10.797,29.582l1.09,5.563l8.355,42.867l3.012-0.176
						l8.324-35.422l20.336,32.844c48.621,6.383,60.215-6.805,60.215-6.805L1495.113,1655.961z"/>
				</g>
				<path style="fill:#E59375;" d="M1493.891,1258.023c0,0-30.004,311.113-33.207,325.633c0,0-29.531,10.035-29.246,1.734
					c0.652-20.039-28.469-148.238-30.379-179.656c-3.043-50.453,5.164-84.035,31.41-151.859
					C1432.469,1253.875,1480.754,1220.402,1493.891,1258.023z"/>
			</g>
			<path style="fill:#E59375;" d="M1382.992,938.789c0,0-11.207,185.637,40.137,301.363c0,0,22.668,60.918,70.133,26.383
				c0,0,60.352-294.613,27.16-395.203C1520.422,871.332,1379.176,838.293,1382.992,938.789z"/>
			<path style="fill:#E79675;" d="M1460.566,747.285c5.602-1.016,28.695,10.91,28.695,10.91s28.855,92.711,30.09,106.813
				c1.246,14.086-95.711,87.07-204.02,45.516c0,0,50.148-130.563,53.215-162.715
				C1371.617,715.652,1460.566,747.285,1460.566,747.285z"/>
			<path style="fill:#24365F;" d="M1489.262,758.195c0,0,27.656,83.613,30.09,106.813c8.633,82.141-102.508,116.586-210.816,75.031
				c0,0-7.027-112.926,60.012-192.231C1368.547,747.809,1386.352,764.051,1489.262,758.195z"/>
			<path style="fill:#F7A483;" d="M1386.855,1000.977l-78.32-43c0,0,12.707,247.816,22.633,317.426c0,0,43.816,12.199,57.391,3.184
				c40.625-95.297,64.156-302.215,64.156-302.215L1386.855,1000.977z"/>
			<path style="fill:#F7A483;" d="M1339.406,885.457c0,0-37.586,10.848-29.809,80.492c7.594,68.024,132.695,74.48,144.371,4.738
				C1466.547,895.644,1405.66,855.875,1339.406,885.457z"/>
			<path style="fill:#F7A483;" d="M1392.23,519.582h75.387c-3.426-10.984-10.527-39.394,0.453-58.73l-76.16-50.008
				C1391.91,410.844,1405.449,494.766,1392.23,519.582z"/>
			<path style="fill:#E1876F;" d="M1462.203,486.617c-0.211-8.402,1.172-17.492,5.867-25.766l-76.16-50.008
				c0,0,5.516,34.199,6.078,65.395C1425.492,484.984,1436.813,488.371,1462.203,486.617z"/>
			<g>
				<path style="fill:#F7A483;" d="M1479.789,467.699l4.57-11.121l11.449-32.816c1.621-5.223,2.617-12.422,1.066-17.68
					c-1.859-6.32-3.035-16.527-0.141-27.727c7.742-30-4.906-46.508-4.906-46.508c-16.289-28.777-58.043-30.762-58.043-30.762
					c-51.766,0.059-58.523,49.836-58.523,49.836c-9.984,32.84,15.133,61.797,15.184,61.848c3.184,3.66,3.25,9.348,4.652,13.75
					c1.492,4.707,3.887,9.148,6.934,13.02c6.832,8.691,15.902,17.145,25.383,22.594c8.984,5.172,26.625,10.895,39.324,11.406
					C1472.004,473.754,1477.176,474.078,1479.789,467.699z"/>
				<path style="fill:#C4A17E;" d="M1395.238,432.34c0.93-23.59,1.461-22.117,1.461-22.117c0.895-6.863,13.656,8.676,13.84-0.309
					c0.805-41.145,16.723-59.938,22.719-62.805c16.285-7.766,33.129-9.387,46.266-6.359c20.586,4.742,18.391,32.359,18.391,32.359
					c22.844-100.344-91.711-73.727-91.711-73.727c-55.723,11.645-52.688,63.754-52.688,63.754
					c-9.563,55.293,43.594,90.121,43.594,90.121L1395.238,432.34z"/>
				<g>
					<g>
						<g>
							<g>
								<g>
									<g>
										<path style="fill:#F8A07D;" d="M1399.262,424.5c-1.918,1.324-4.324,2.02-7.285,1.813
											c-7.988-0.516-14.242-8.344-13.965-17.453c0.277-9.09,6.957-16.055,14.938-15.535c3.789,0.25,7.176,2.141,9.676,5.023
											c3.637,4.215,3.379,11.633,2.223,16.688C1403.914,419.074,1402.129,422.504,1399.262,424.5z"/>
									</g>
								</g>
							</g>
						</g>
					</g>
					<g>
						<g>
							<path style="fill:#E98B6F;" d="M1395.75,401.957c-0.219-4.801-10.125-0.727-8.793,2.039c0.762,1.59,2.406,2.816,3.672,3.965
								c1.75,1.574,2.582,2.984,2.707,5.371c0.023,0.27,0.043,1.109-0.258,1.285c-1.293,0.805-5.156-4.066-6.004-5.098
								c-1.668-2.027-1.742-5.34-0.762-7.695c1.02-2.5,2.758-3.613,5.473-3.309c2.172,0.234,4.367,0.5,4.109,3.191
								C1395.883,401.758,1395.766,402.199,1395.75,401.957L1395.75,401.957z"/>
						</g>
						<g>
							<path style="fill:#E98B6F;" d="M1392.406,406.758c1.063-0.953,1.984-0.066,2.969,0.719c0.922,0.75,1.398,1.766,1.59,2.902
								c0.422,2.516-0.082,5.82-1.617,7.918c-1.23,1.684-3.219,2.656-5.313,2.488c-2.918-0.227-3.648-2.84-3.633-5.309
								c0-0.652,0.035-2.219,0.688-2.594c0.73-0.41,1.168,0.703,1.602,1.188c0.621,0.648,1.566,0.941,2.422,1.059
								c1.652,0.223,3.32-0.539,4.418-1.711c0.195-0.211,0.387-0.461,0.488-0.73c-0.086,1.613-0.184,1.961-0.313,1.07
								c-0.098-0.414-0.273-0.801-0.492-1.172c-0.613-1.145-1.711-1.961-2.414-3.066
								C1392.465,409.016,1391.879,407.246,1392.406,406.758L1392.406,406.758z"/>
						</g>
					</g>
				</g>
				<path style="fill:#FFFFFF;" d="M1399.555,426.184c-0.133,2.699-2.438,4.785-5.145,4.645c-2.699-0.133-4.781-2.438-4.637-5.141
					c0.133-2.703,2.43-4.785,5.141-4.648C1397.613,421.176,1399.699,423.48,1399.555,426.184z"/>
			</g>
			<path style="fill:#4FA6C9;" d="M1508.602,554.863c0,0,29.746,41.203,34.934,62.43c3.41,13.949-20.914,45.367-40.551,50.91
				C1492.258,671.231,1492.004,557.641,1508.602,554.863z"/>
			<path style="fill:#24365F;" d="M1508.602,554.863c0,0,29.746,41.203,34.934,62.43c3.41,13.949-20.914,45.367-40.551,50.91
				C1492.258,671.231,1492.004,557.641,1508.602,554.863z"/>
			<g>
				<path style="fill:#24365F;" d="M1478.531,517.324l16.918,2.258c0,0,27.094,55.336,33.816,113.59
					c-7.191,47.809-22.516,119.852-40.004,125.023c-59.266,17.527-121.141-10.027-121.141-10.027l-28.344-113.18
					c76.133-29.633,37.656-116.652,37.656-116.652l15.988-3.832C1393.422,514.504,1445.68,561.469,1478.531,517.324z"/>
			</g>
			<g>
				<g>
					<path style="fill:#F7A483;" d="M1372.715,1674.66c22.531,5.23,44.797-0.805,44.797-0.805l-22.801-15.301
						c0,0-23.793-32.711-27.926-44.008c-2.648-7.242-2.145-30.211-2.145-30.211h-29.309l-1.039,16.355l-12.105,24.211
						c0,0-1.684,11.668,19.41,15.289C1341.598,1640.191,1355.547,1657.785,1372.715,1674.66z"/>
				</g>
				<path style="fill:#C93232;" d="M1394.711,1658.555c-8.074,3.207-21.973,3.352-28.73-4.305
					c-27.184-30.852-31.688-53.559-31.688-53.559c-15.598,15.223-12.523,28.891-12.523,28.891l0.754,5.617l5.801,43.285h3.02
					l10.402-34.863l18.359,33.992c48.152,9.254,60.508-3.219,60.508-3.219L1394.711,1658.555z"/>
			</g>
			<path style="fill:#F7A483;" d="M1328.117,1249.535l64.004,18.953c0,0-24.637,301.25-27.48,315.848c0,0-29.383,8.305-29.309,0
				c0.16-20.047-25.66-143.219-27.914-174.617C1303.527,1355.758,1288.867,1319.566,1328.117,1249.535z"/>
			<g>
				<path style="fill:#F7A483;" d="M1385.289,561.578c1.516,24.371-11.219,48.305-35.602,49.805
					c-24.371,1.516-87.754-9.629-72.559-28.746c29.855-37.59,47.938-56.449,72.313-57.961
					C1373.82,523.16,1383.789,537.203,1385.289,561.578z"/>
				<path style="fill:#F7A483;" d="M1366.703,597.023l-15.508-41.82l-45.395-6.102c0,0-109.953,96.902-124.68,127.758
					c-15.695,32.875,13.41,23.207,25.484,20.676C1206.605,697.535,1352.109,621.461,1366.703,597.023z"/>
				<path style="fill:#F7A483;" d="M1178.613,698.012c0,0,54.781,77.066,105.801,120.969c0,0,21.988-2.188,15.023-14.184
					c-11.844-20.363-60.602-115.734-72.578-136.176C1220.117,657.137,1178.613,698.012,1178.613,698.012z"/>
				<path style="fill:#F7A483;" d="M1299.438,804.797l12.004-0.258l28.336-12.813c-0.133,15.902,1.492,32.09,1.492,32.09
					c14.387,15.293,23.055,27.266,23.055,27.266c5.641,5.199-0.641,8.086-0.641,8.086c-10.57-3.141-30.527-18.684-30.527-18.684
					c9.98,10.313,29.004,25.039,29.004,25.039c3.863,5.106-2.574,6.641-2.574,6.641c-15.199-0.383-32.777-22.945-32.777-22.945
					c6.371,8.727,24.488,23.832,24.488,23.832c0.785,4.551-1.777,4.285-1.777,4.285c-12.098,1.547-28.949-20.219-28.949-20.219
					l6.516,7.988c9.906,10.133,0.785,11.195,0.785,11.195l-6.008-4.5c-18.082-14.02-24.957-31.871-24.957-31.871l-12.492-20.949
					L1299.438,804.797z"/>
			</g>
			<path style="fill:#D7B089;" d="M1473.535,339.738l-39.809-43.508c47.289-16.063,75.57,31.805,75.57,31.805l-8.953,11.703
				C1500.344,339.738,1483.305,301.086,1473.535,339.738z"/>
			<path style="fill:#24365F;" d="M1527.23,1080.148c6.707-79.465,8.859-175.531-11.879-227.395c0,0-188.266,12.352-206.172,55.406
				c0,0-9.098,49.77-1.543,171.988C1307.637,1080.148,1438.695,1111.625,1527.23,1080.148z"/>
			<path style="fill:#DDBE90;" d="M1331.914,484.789c0,27.105,52.988,50.148,87.938,58.215c-1.527-31.906-1.574-55.941-1.574-55.941
				c-3.379-61.129-1.52-83.789,4.031-126.082c4.332-33.016,28.273-46.324,51.227-21.242c-0.93-1.023-1.148-4.527-1.602-5.906
				c-0.684-2.117-1.508-4.18-2.461-6.191c-8.031-16.855-24.363-28.828-42.078-33.934c-6.352-1.832-12.547-2.375-19.094-1.664
				c-21.832,2.379-48.84,17.75-59.805,36.891c-10.738,18.766-13.145,42.41-14.898,63.566c-0.988,11.98-1.785,24.219-1.566,36.242
				C1332.031,428.75,1332.457,451.602,1331.914,484.789z"/>
		</g>
	</g>
	<g>
		<path style="fill:#3C2415;" d="M1013.106,459.859c5.047,5.023,6.934,12.582,9.375,19.273
			c18.809-24.816,32.652-73.555,5.859-95.895C988.066,349.668,987.262,434.125,1013.106,459.859z"/>
		<g>
			<g>
				<g>
					<g>
						<path style="fill:#CA8268;" d="M926.754,1127.234l-3.109,20.969l12.203,27.809c0,0-5.164,4.621-10.871-4.5l-10.875-22.93
							l1.527-23.625L926.754,1127.234z"/>
						<path style="fill:#CA8268;" d="M921.16,1134.32l-4.266,20.766l10.613,28.457c0,0-5.398,4.316-10.586-5.109l-9.582-23.508
							l2.848-23.492L921.16,1134.32z"/>
						<path style="fill:#E59375;" d="M897.723,1138.973l3.797-24.383l4.184-30.254l18.93-2.617l6.504,31.898l1.578,16.75
							l1.902,22.879l1.016,7.391c0,0-5.93,1.906-10.539-9.848l-4.828-21.578l-8.207,16.961l6.949,29.773
							c0,0-1.777,15.543-6.438,9.68l-15.66-41.789L897.723,1138.973z"/>
					</g>
					<path style="fill:#E59375;" d="M970.555,878.269c0,0-41.898,165.106-45.922,203.449c0,0-16.273,19.317-18.93,2.617
						c-5.324-33.332,2.238-207.863,10.766-221.68C924.984,848.84,970.555,878.269,970.555,878.269z"/>
				</g>
				<g>
					<path style="fill:#E59375;" d="M936.555,679.352l-13.75,4.484c0,0-21.777,169.356-3.352,207.18
						c18.426,37.832,39.633-0.184,46.543-4.469c6.898-4.289,50.969-196.09,50.969-196.09L936.555,679.352z"/>
					<path style="fill:#010C18;" d="M906.953,871.359l8.793-212.164c9.961-52.078,63.277-36.574,63.277-36.574
						c43.238,11.254,41.168,59.711,41.168,59.711l-37.188,203.219c0,0-7.789,31.074-47.793,31.074
						C935.211,916.625,905.695,912.644,906.953,871.359z"/>
				</g>
				
					<rect x="905.711" y="1079.266" transform="matrix(0.0344 -0.9994 0.9994 0.0344 -211.5231 1973.2161)" style="fill:#FFFFFF;" width="19.316" height="33.61"/>
				<path style="fill:#010C18;" d="M979.34,892.691c0,0-18.551,124.715-45.16,201.109c0,0-22.824,2.137-35.828-1.242
					c0,0-1.977-178.824,12.742-236.684C911.094,855.875,984.629,857.406,979.34,892.691z"/>
			</g>
			<path style="fill:#2C080D;" d="M952.305,1681.621c0,0-7.504,29.211-16.723,37.125c-9.223,7.93-44.406,19.578-44.406,19.578
				l-19.492,2.797c0,0-13.547,9.719,23.641,19.938c37.18,10.223,102.441-20.621,102.441-20.621l-14.711-59.707L952.305,1681.621z"/>
			<path style="fill:#2C080D;" d="M1150.984,1761.945c6.563-10.223,20.309-65.957,20.309-65.957l30.383-0.918l19.012,61.359
				c0,0,3.051,10.273-3.152,14.121c0,0-37.891,13.148-70.25-0.629C1147.285,1769.922,1147.629,1767.176,1150.984,1761.945z"/>
			<path style="fill:#F7A483;" d="M962.625,915.688l-38.789-237.09c0,0-13.371-35.645,13.363-53.457l101.887-47.891h71.859
				l122.492,72.394l-80.285,266.043H962.625z"/>
			<path style="fill:#000210;" d="M1153.152,915.688c0,0,22,50.242,27.305,165.73c0,0-165.598,51.941-217.539,0l-0.293-165.73
				H1153.152z"/>
			<g>
				<path style="fill:#000210;" d="M1044.586,1080.918c-0.277,38.754,29.902,70.398,67.414,70.676
					c37.523,0.273,68.172-30.918,68.457-69.676c0.285-38.754-29.902-70.387-67.414-70.668
					C1075.52,1010.969,1044.871,1042.172,1044.586,1080.918z"/>
				<path style="fill:#000210;" d="M1180.391,1090.465l18.016,295.125c0,0-31.891,76.754-88.34,29.566l-61.289-303.594
					C1048.777,1111.563,1078.527,1009.527,1180.391,1090.465z"/>
			</g>
			<path style="fill:#000210;" d="M1198.406,1385.59c0,0,16.984,55.41,11.938,151.906l5.047,180.398l-62.512,1.238l-42.512-303.047
				C1110.367,1416.086,1152.926,1317.863,1198.406,1385.59z"/>
			<g>
				<path style="fill:#000210;" d="M963.227,1081.605c-3.93,38.551,9.852,71.539,47.172,75.348
					c37.332,3.813,70.777-24.359,74.711-62.918c3.93-38.559-23.137-72.899-60.461-76.703
					C987.32,1013.523,967.16,1043.051,963.227,1081.605z"/>
				<path style="fill:#000210;" d="M1069.18,1132.367l-34.293,271.906c0,0-74.352,32.969-87.555-13.164
					c0,0,1.731-207.129,15.895-309.504C963.227,1081.605,1055.039,1036.891,1069.18,1132.367z"/>
			</g>
			<path style="fill:#000210;" d="M1034.887,1393.164c0,0,10.438,39.883-0.832,112.695l-25.801,206.086l-65.859-3.488l4.938-328.281
				C947.332,1380.176,988.336,1337.16,1034.887,1393.164z"/>
			<g>
				<path style="fill:#F7A483;" d="M1217.652,894.563c14,140.414,8.258,149.711,6.801,206.027c0,0,7.477,19.82,20.203,8.688
					c12.73-11.117,33.035-198.117,26.641-213.031C1261.781,874.106,1217.652,894.563,1217.652,894.563z"/>
				<path style="fill:#F7A483;" d="M1226.523,1094.992l-19.75,19.742l-16.785,24.586c8.309,5.594,17.012-8.172,17.012-8.172
					c-5.426,21.676-15.965,40.801-15.965,40.801c-2.547,7.77,4.789,7.191,4.789,7.191c8.191-8.41,18.676-33.223,18.676-33.223
					c-3.938,14.781-13.965,38.336-13.965,38.336c-0.938,6.758,5.836,4.836,5.836,4.836c13.93-8.246,18.559-38.344,18.559-38.344
					c-1.391,11.418-10.387,34.867-10.387,34.867c1.617,4.645,3.883,3.059,3.883,3.059c12.035-4.836,16.402-33.816,16.402-33.816
					l-1.918,10.805c-3.934,14.563,5.09,10.805,5.09,10.805l3.25-7.301c9.523-22.406,6.648-42.578,6.648-42.578l-0.059-26.203
					L1226.523,1094.992z"/>
				<path style="fill:#F7A483;" d="M1186.57,653.996c47.285-10.766,63.441,32.941,63.441,32.941s23.75,145.492,23.457,207.844
					c-0.195,42.074-51.531,8.188-54.902,0.789c-7.434-16.32-61.391-191.566-61.391-191.566S1154.371,662.828,1186.57,653.996z"/>
				<path style="fill:#091420;" d="M1210.57,898.016l-61.332-198.836c1.375-49.43,49.746-56.805,49.746-56.805
					c45.484-4.356,55.445,34.781,55.445,34.781l22.004,199.059c0,0,7.461,44.746-18.391,45.391
					C1258.043,921.606,1214.668,926.309,1210.57,898.016z"/>
				<polygon style="fill:#FFFFFF;" points="1254.395,1088.813 1250.605,1107.75 1217.652,1101.164 1221.434,1082.223 				"/>
				<path style="fill:#091420;" d="M1206.848,885.953c0,0,7.938,167.039,10.805,201.195l37.289,7.844
					c0,0,33.715-167.406,21.492-218.777C1276.434,876.215,1227.711,849.629,1206.848,885.953z"/>
			</g>
			<path style="fill:#F7A483;" d="M1111.305,524.883v76.805h-81.223c0,0,19.977-30.445,9.984-76.805H1111.305z"/>
			<path style="fill:#E1876F;" d="M1070.102,590.106c-7.316,4.707-22.875,14.734-31.754,8.871c-2.387-1.586-3.496-3.656-3.855-5.961
				c5.223-12.164,12.406-36.426,5.574-68.133h71.238v6.961C1102.418,554.328,1091.02,576.621,1070.102,590.106z"/>
			<g>
				<path style="fill:#F8A07D;" d="M1113.242,525.957c0,0,13.824-6.008,29.477-40.219c0,0,33.984-40.453,9.898-86.383
					c0,0-14.234-38.844-83.191-27.969C1069.426,371.387,1063.219,475.477,1113.242,525.957z"/>
				<path style="fill:#F7A483;" d="M1028.32,546.731l-4.602-12.039c0,0-12.692-44.813-12.692-44.82
					c-1.594-5.633-1.683-13.172-0.66-18.961c1.113-6.305,1.824-12.887,0.184-19.531c-8.008-32.227,8.508-50.52,8.508-50.52
					c18.199-30.387,63-31.402,63-31.402c55.461,1.441,61.363,54.941,61.363,54.941c9.824,35.449-17.855,65.801-17.914,65.867
					c-2.207,2.414-0.773,14.125-1.375,17.477c-2.59,14.297-16.004,23.363-27.934,29.668c-13.102,6.926-28.973,14.336-43.766,16.039
					C1046.824,554.102,1030.953,553.637,1028.32,546.731z"/>
			</g>
			<path style="fill:#FFFFFF;" d="M1166.34,909.25c-0.168,7.898,11.82,90.535,6.789,91.598c-0.031,0.004-137.102,31.59-210.211,0
				l-0.293-85.16l-38.789-237.09c0,0-13.371-35.645,13.363-53.457l101.887-47.891l-6.875,20.652l14.73,41.898l64.004-62.551
				l122.492,72.394c-6.84,22.684-13.648,45.375-20.496,68.059c-12.625,41.82-24.914,83.758-37.926,125.461
				C1175.016,843.164,1164.254,888.394,1166.34,909.25z"/>
			<polygon style="fill:#D1D3D4;" points="1055.785,592.16 1056.633,630.328 1070.691,616.586 			"/>
			<g>
				<g>
					<path style="fill:#E6E7E8;" d="M1037.879,653.715c0,3.004,2.438,5.441,5.449,5.441c3,0,5.449-2.438,5.449-5.441
						c0-3.008-2.449-5.445-5.449-5.445C1040.316,648.269,1037.879,650.707,1037.879,653.715z"/>
				</g>
				<g>
					<path style="fill:#E6E7E8;" d="M1037.879,752.621c0,3.004,2.438,5.441,5.449,5.441c3,0,5.449-2.438,5.449-5.441
						c0-3.016-2.449-5.449-5.449-5.449C1040.316,747.172,1037.879,749.606,1037.879,752.621z"/>
				</g>
				<g>
					<path style="fill:#E6E7E8;" d="M1037.879,851.519c0,3.012,2.438,5.453,5.449,5.453c3,0,5.449-2.442,5.449-5.453
						c0-3.008-2.449-5.445-5.449-5.445C1040.316,846.074,1037.879,848.512,1037.879,851.519z"/>
				</g>
				<g>
					
						<ellipse transform="matrix(0.9239 -0.3827 0.3827 0.9239 -284.2933 471.6105)" style="fill:#E6E7E8;" cx="1043.328" cy="950.426" rx="5.449" ry="5.449"/>
				</g>
			</g>
			
				<line style="fill:none;stroke:#E6E7E8;stroke-width:2.9481;stroke-miterlimit:10;" x1="1055.785" y1="634.68" x2="1055.785" y2="1010.039"/>
			<g>
				<path style="fill:#471F08;" d="M963.766,1008.664c0,0,70.004,32.801,213.297-0.723c2.355-0.559,1.359-6.672,1.359-6.672
					l-1.359-13.789c-0.629-4.422-3.094-4.215-3.094-4.215c-0.035,0.004-137.105,31.594-210.203,0c0,0-2.953-0.516-3.078,3.91v17.195
					C960.688,1004.371,960.688,1007.809,963.766,1008.664z"/>
				<g>
					<path style="fill:none;stroke:#BCBEC0;stroke-width:4.8231;stroke-miterlimit:10;" d="M1034.887,1019.074
						c0,2.184,1.727,3.957,3.863,3.957h27.883c2.129,0,3.863-1.773,3.863-3.957v-20.086c0-2.18-1.734-3.957-3.863-3.957h-27.883
						c-2.137,0-3.863,1.777-3.863,3.957V1019.074z"/>
					
						<line style="fill:none;stroke:#BCBEC0;stroke-width:4.8231;stroke-miterlimit:10;" x1="1070.496" y1="1007.766" x2="1055.734" y2="1007.766"/>
				</g>
			</g>
			<path style="fill:#E6E7E8;" d="M1055.785,591.301c0,0,44.941-17.457,55.52-34.844l13.281,25.316l-47.383,45.441l-21.418-35.055"
				/>
			<path style="fill:#3C2415;" d="M1099.895,409.691c1.512,2.727,7.547,21.793,0.121,31.34c15.656,12.031,8.098,36.398,8.098,36.398
				l3.797,0.215c21.961-5.688,14.586,35.863,14.586,35.879c0.168-0.957,3.824-3.281,4.551-3.976
				c4.293-4.113,13.348-18.898,16.195-24.109c15.461-28.344,14-29.793,18.152-46.523c2.832-11.43,1.609-42.383-15.023-57.941
				C1150.371,380.973,1130.98,380.965,1099.895,409.691z"/>
			<path style="fill:#D48A50;" d="M1089.402,355.324"/>
			<g>
				<g>
					<g>
						<g>
							<g>
								<g>
									<path style="fill:#F7A483;" d="M1117.199,495.484c1.969,1.66,4.543,2.688,7.813,2.789
										c8.836,0.277,16.547-7.645,17.227-17.699c0.68-10.027-5.926-18.402-14.754-18.676c-4.191-0.133-8.141,1.578-11.184,4.484
										c-4.441,4.242-4.961,12.414-4.223,18.105C1112.672,489.039,1114.258,492.988,1117.199,495.484z"/>
								</g>
							</g>
						</g>
					</g>
				</g>
				<g>
					<g>
						<path style="fill:#E98B6F;" d="M1123.477,471.09c0.773-5.262,11.199,0.285,9.457,3.176c-1.023,1.672-2.949,2.832-4.477,3.961
							c-2.086,1.566-3.137,3.016-3.547,5.617c-0.051,0.305-0.148,1.219,0.145,1.453c1.34,1.023,6.102-3.93,7.148-4.965
							c2.047-2.043,2.492-5.691,1.68-8.379c-0.875-2.863-2.66-4.281-5.684-4.23c-2.398,0.023-4.855,0.074-4.848,3.063
							C1123.352,470.859,1123.438,471.355,1123.477,471.09L1123.477,471.09z"/>
					</g>
					<g>
						<path style="fill:#E98B6F;" d="M1126.637,476.723c-1.055-1.172-2.152-0.297-3.336,0.477c-1.09,0.719-1.734,1.781-2.063,3.023
							c-0.738,2.715-0.527,6.398,0.934,8.863c1.172,1.996,3.25,3.273,5.582,3.324c3.219,0.047,4.301-2.746,4.559-5.465
							c0.066-0.719,0.203-2.449-0.492-2.926c-0.738-0.508-1.344,0.648-1.879,1.141c-0.746,0.652-1.82,0.855-2.766,0.895
							c-1.844,0.082-3.598-0.938-4.695-2.355c-0.184-0.25-0.352-0.551-0.445-0.844c-0.074,1.777-0.008,2.188,0.227,1.207
							c0.168-0.449,0.387-0.852,0.672-1.227c0.797-1.199,2.094-1.984,2.977-3.117
							C1126.336,479.195,1127.168,477.32,1126.637,476.723L1126.637,476.723z"/>
					</g>
				</g>
			</g>
			<path style="fill:#091420;" d="M1131.301,589.281l-54.484,191.387l8.082,347.75c0,0,84.66-5.184,121.656-38.656l-26.09-203.121
				l52.973-236.996L1131.301,589.281z"/>
			<path style="fill:#1F3038;" d="M1131.301,589.281l-54.484,191.387l0.227,9.09l68.625-70.234c0,0,7.211-12.188-2.559-19.402
				l-16.211-15.508l11.559-8.297c0,0,16.223-7.863,14.254-22.602l-4.645-55.426L1131.301,589.281z"/>
			<path style="fill:#091420;" d="M1010.625,590.625l-62.043,29.16c0,0-35.309,9.324-28.09,45.91l20.402,202.68l-10.219,214.754
				c0,0-8.742,39.906,63.191,33.148l25.453-340.766L1010.625,590.625z"/>
			<path style="fill:#E6E7E8;" d="M1017.828,593.242c0,0,4.133-15.992,24.395-29.5l-2.652,55.109
				C1039.57,618.852,1028.332,590.664,1017.828,593.242z"/>
			<path style="fill:#D1D3D4;" d="M1015.981,618.852l1.848-25.609c6.184-1.519,11.719,7.141,16.227,14.242L1015.981,618.852z"/>
			<path style="fill:#1F3038;" d="M1010.625,590.625l-15.996,7.519l-11.551,53.363c0,0-5.793,13.813,2.59,17.426l15.082,8.793
				l-21.25,13.449c0,0-11.184,7.008-4.301,17.324l42.629,83.223l1.34-14.231L1010.625,590.625z"/>
			<path style="fill:#B1775F;" d="M1117.844,503.539l-5.934-25.895l-3.797-0.215c0,0-3.832,17.156-24.355,20.191
				c0,0-8.875,1.344-12.656,1.844c-0.496,0.07-5.961-5.336-6.664-5.793c-6.07-3.953-13.371-5.023-20.457-5.578
				c-7.234-0.555-14.98-1.258-21.91,1.383c-0.926,0.352-9.793,4.844-10.086,3.582c0,0,9.387,41.492,15.984,53.356
				c0,0,2.887,9.129,24.219,6.894c0,0,36.617-3.246,65.047-29.746C1121.945,520.008,1117.844,503.539,1117.844,503.539z
				 M1022.269,501.762c0.84-4.313,1.016-7.031,4.703-7.715c7.309-1.344,15.289-0.102,22.559,0.828
				c5.887,0.746,13.168,1.508,15.574,7.93c2.121,5.652,0.563,13.898-2.406,19.055c-5.027,8.715-21.301,13.199-29.539,7.563
				C1026.141,524.613,1020.695,509.902,1022.269,501.762z"/>
			<g>
				<polygon style="fill:#0088CE;" points="1060.203,605.961 1061.863,602.863 1073.164,620.203 1063.445,623.664 				"/>
				<path style="fill:#0088CE;" d="M1034.055,607.484l-3.176-4.852c0,0-12.07,10.141,0.613,21.031
					C1031.492,623.664,1031.484,614.695,1034.055,607.484z"/>
				<path style="fill:#0088CE;" d="M1060.203,605.961c0,0-9.582,8.508-26.148,1.523c-3.629,4.613-3.613,10.484-2.563,16.18
					l8.582,17.703h11.988l11.383-17.703C1063.445,623.664,1064.621,619.758,1060.203,605.961z"/>
				<polygon style="fill:#0071AC;" points="1052.063,641.367 1061.746,894.707 1041.527,934.063 1025.02,894.906 1040.074,641.367 
									"/>
			</g>
		</g>
		<path style="fill:#3C2415;" d="M1096.711,406.227l18.5-9.199l35.16-16.055c0,0-0.008-24.105-44.363-33.406
			c0,0-54.379-8.582-97.652,14.305c0,0-11.797,6.438-21.094,0.715C987.262,362.586,1002.285,425.539,1096.711,406.227z"/>
	</g>
</g>
</svg>
